<?xml version="1.0" encoding="UTF-8" standalone="no"?>
<!DOCTYPE svg PUBLIC "-//W3C//DTD SVG 1.1//EN"
 "http://www.w3.org/Graphics/SVG/1.1/DTD/svg11.dtd">
<!-- Generated by graphviz version 5.0.0 (20220707.1540)
 -->
<!-- Title: dependencies Pages: 1 -->
<svg width="806pt" height="247pt"
 viewBox="0.00 0.00 806.00 246.80" xmlns="http://www.w3.org/2000/svg" xmlns:xlink="http://www.w3.org/1999/xlink">
<g id="graph0" class="graph" transform="scale(1 1) rotate(0) translate(4 242.8)">
<title>dependencies</title>
<polygon fill="white" stroke="transparent" points="-4,4 -4,-242.8 802,-242.8 802,4 -4,4"/>
<text text-anchor="middle" x="399" y="-8.2" font-family="sans-serif" font-size="14.00">dependencies</text>
<g id="clust1" class="cluster">
<title>cluster_AppModule</title>
<polygon fill="none" stroke="black" stroke-dasharray="1,5" points="8,-32.8 8,-230.8 790,-230.8 790,-32.8 8,-32.8"/>
</g>
<g id="clust2" class="cluster">
<title>cluster_AppModule_declarations</title>
<polygon fill="none" stroke="black" points="660,-40.8 660,-92.8 782,-92.8 782,-40.8 660,-40.8"/>
</g>
<g id="clust4" class="cluster">
<title>cluster_AppModule_imports</title>
<polygon fill="none" stroke="black" points="16,-40.8 16,-92.8 652,-92.8 652,-40.8 16,-40.8"/>
</g>
<g id="clust6" class="cluster">
<title>cluster_AppModule_bootstrap</title>
<polygon fill="none" stroke="black" points="362,-170.8 362,-222.8 486,-222.8 486,-170.8 362,-170.8"/>
</g>
<!-- AppComponent -->
<g id="node1" class="node">
<title>AppComponent</title>
<polygon fill="#ffffb3" stroke="black" points="773.94,-84.8 668.06,-84.8 668.06,-48.8 773.94,-48.8 773.94,-84.8"/>
<text text-anchor="middle" x="721" y="-62.6" font-family="Times,serif" font-size="14.00">AppComponent</text>
</g>
<!-- AppModule -->
<g id="node2" class="node">
<title>AppModule</title>
<polygon fill="#8dd3c7" stroke="black" points="465.66,-149.8 462.66,-153.8 441.66,-153.8 438.66,-149.8 382.34,-149.8 382.34,-113.8 465.66,-113.8 465.66,-149.8"/>
<text text-anchor="middle" x="424" y="-127.6" font-family="Times,serif" font-size="14.00">AppModule</text>
</g>
<!-- AppComponent&#45;&gt;AppModule -->
<g id="edge1" class="edge">
<title>AppComponent&#45;&gt;AppModule</title>
<path fill="none" stroke="black" d="M721,-85.08C721,-106.12 721,-137.8 721,-137.8 721,-137.8 475.92,-137.8 475.92,-137.8"/>
<polygon fill="black" stroke="black" points="475.92,-134.3 465.92,-137.8 475.92,-141.3 475.92,-134.3"/>
</g>
<!-- AppComponent  -->
<g id="node7" class="node">
<title>AppComponent </title>
<polygon fill="#80b1d3" stroke="black" points="478.44,-214.8 369.56,-214.8 369.56,-178.8 478.44,-178.8 478.44,-214.8"/>
<text text-anchor="middle" x="424" y="-192.6" font-family="Times,serif" font-size="14.00">AppComponent </text>
</g>
<!-- AppModule&#45;&gt;AppComponent  -->
<g id="edge6" class="edge">
<title>AppModule&#45;&gt;AppComponent </title>
<path fill="none" stroke="black" stroke-dasharray="1,5" d="M424,-149.91C424,-149.91 424,-168.79 424,-168.79"/>
<polygon fill="black" stroke="black" points="420.5,-168.79 424,-178.79 427.5,-168.79 420.5,-168.79"/>
</g>
<!-- AppRoutingModule -->
<g id="node3" class="node">
<title>AppRoutingModule</title>
<polygon fill="#8dd3c7" stroke="black" points="644.28,-84.8 641.28,-88.8 620.28,-88.8 617.28,-84.8 515.72,-84.8 515.72,-48.8 644.28,-48.8 644.28,-84.8"/>
<text text-anchor="middle" x="580" y="-62.6" font-family="Times,serif" font-size="14.00">AppRoutingModule</text>
</g>
<!-- AppRoutingModule&#45;&gt;AppModule -->
<g id="edge2" class="edge">
<title>AppRoutingModule&#45;&gt;AppModule</title>
<path fill="none" stroke="black" d="M580,-84.82C580,-102.17 580,-125.8 580,-125.8 580,-125.8 475.81,-125.8 475.81,-125.8"/>
<polygon fill="black" stroke="black" points="475.81,-122.3 465.81,-125.8 475.81,-129.3 475.81,-122.3"/>
</g>
<!-- BottomNavComponent -->
<g id="node4" class="node">
<title>BottomNavComponent</title>
<polygon fill="#8dd3c7" stroke="black" points="497.16,-84.8 494.16,-88.8 473.16,-88.8 470.16,-84.8 350.84,-84.8 350.84,-48.8 497.16,-48.8 497.16,-84.8"/>
<text text-anchor="middle" x="424" y="-62.6" font-family="Times,serif" font-size="14.00">BottomNavComponent</text>
</g>
<!-- BottomNavComponent&#45;&gt;AppModule -->
<g id="edge3" class="edge">
<title>BottomNavComponent&#45;&gt;AppModule</title>
<path fill="none" stroke="black" d="M424,-84.91C424,-84.91 424,-103.79 424,-103.79"/>
<polygon fill="black" stroke="black" points="420.5,-103.79 424,-113.79 427.5,-103.79 420.5,-103.79"/>
</g>
<!-- MainPlayerComponent -->
<g id="node5" class="node">
<title>MainPlayerComponent</title>
<polygon fill="#8dd3c7" stroke="black" points="332.15,-84.8 329.15,-88.8 308.15,-88.8 305.15,-84.8 185.85,-84.8 185.85,-48.8 332.15,-48.8 332.15,-84.8"/>
<text text-anchor="middle" x="259" y="-62.6" font-family="Times,serif" font-size="14.00">MainPlayerComponent</text>
</g>
<!-- MainPlayerComponent&#45;&gt;AppModule -->
<g id="edge4" class="edge">
<title>MainPlayerComponent&#45;&gt;AppModule</title>
<path fill="none" stroke="black" d="M259,-84.82C259,-102.17 259,-125.8 259,-125.8 259,-125.8 371.94,-125.8 371.94,-125.8"/>
<polygon fill="black" stroke="black" points="371.94,-129.3 381.94,-125.8 371.94,-122.3 371.94,-129.3"/>
</g>
<!-- MiniPlayerComponent -->
<g id="node6" class="node">
<title>MiniPlayerComponent</title>
<polygon fill="#8dd3c7" stroke="black" points="168.32,-84.8 165.32,-88.8 144.32,-88.8 141.32,-84.8 23.68,-84.8 23.68,-48.8 168.32,-48.8 168.32,-84.8"/>
<text text-anchor="middle" x="96" y="-62.6" font-family="Times,serif" font-size="14.00">MiniPlayerComponent</text>
</g>
<!-- MiniPlayerComponent&#45;&gt;AppModule -->
<g id="edge5" class="edge">
<title>MiniPlayerComponent&#45;&gt;AppModule</title>
<path fill="none" stroke="black" d="M96,-85.08C96,-106.12 96,-137.8 96,-137.8 96,-137.8 372.13,-137.8 372.13,-137.8"/>
<polygon fill="black" stroke="black" points="372.13,-141.3 382.13,-137.8 372.13,-134.3 372.13,-141.3"/>
</g>
</g>
</svg>
